<svg width="25" height="30" viewBox="0 0 25 30" fill="none"
    xmlns="http://www.w3.org/2000/svg">
    <g clip-path="url(#clip0)">
        <path d="M17.7346 0C16.6547 0 15.6663 0.627105 15.0125 1.70344C14.359 0.627105 13.3705 0 12.2905 0C11.2108 0 10.2225 0.627105 9.56847 1.70344C8.91458 0.627105 7.9261 0 6.84644 0C4.93594 0 3.38136 1.97499 3.38136 4.40266C3.38136 6.70305 4.77712 8.59643 6.54949 8.78787V20.8157C6.54949 21.0244 6.68255 21.193 6.84644 21.193H17.7346C17.8983 21.193 18.0317 21.0244 18.0317 20.8157V8.78723C19.8042 8.59556 21.1996 6.7024 21.1996 4.4018C21.1998 1.97499 19.6454 0 17.7346 0ZM17.7346 8.04922C17.571 8.04922 17.4376 8.21827 17.4376 8.42651V20.4376H7.14339V8.42651C7.14339 8.21827 7.01034 8.04922 6.84644 8.04922C5.26289 8.04922 3.97543 6.41319 3.97543 4.40266C3.97543 2.39149 5.26306 0.754594 6.84644 0.754594C7.86559 0.754594 8.78746 1.43145 9.31237 2.56678C9.41932 2.79829 9.71813 2.79829 9.82457 2.56678C10.3495 1.43145 11.2714 0.754594 12.2905 0.754594C13.3097 0.754594 14.2313 1.43145 14.7569 2.56678C14.8636 2.79829 15.1624 2.79829 15.2685 2.56678C15.7941 1.43145 16.7158 0.754594 17.7347 0.754594C19.3183 0.754594 20.6059 2.39149 20.6059 4.40266C20.6059 6.41319 19.3181 8.04922 17.7346 8.04922Z" fill="#C96767"/>
        <path d="M19.4424 27.954C18.2498 27.954 17.1885 25.7307 16.8046 24.8227C16.7239 24.5456 16.6327 24.3113 16.5251 24.108C16.0447 23.2095 15.2478 22.6731 14.3946 22.6731C13.5436 22.6731 12.7659 23.1998 12.2915 24.0606C11.8169 23.1998 11.0395 22.6731 10.1883 22.6731C9.33424 22.6731 8.53797 23.2095 8.05729 24.1093C7.94797 24.3143 7.85712 24.5486 7.79543 24.7756C7.39441 25.7322 6.33238 27.955 5.13984 27.955C5.00373 27.955 4.88577 28.0722 4.85238 28.2393C4.81848 28.4075 4.87848 28.5813 4.99797 28.6646C5.07017 28.7139 6.79577 29.8932 8.73441 29.8932C10.0493 29.8932 11.1422 29.3522 11.982 28.2852C11.9893 28.2763 11.9951 28.2675 12.0012 28.2587C12.1078 28.123 12.2053 27.9764 12.2915 27.8187C12.3783 27.9764 12.4751 28.123 12.5819 28.2578C12.588 28.2675 12.5946 28.2763 12.6015 28.2852C13.4417 29.3522 14.5332 29.8932 15.8493 29.8932C15.8493 29.8932 15.8493 29.8932 15.85 29.8932C17.788 29.8932 19.5127 28.7139 19.5859 28.6646C19.7047 28.5821 19.7652 28.406 19.7313 28.2393C19.6964 28.0713 19.578 27.954 19.4424 27.954ZM15.849 29.1369C15.8485 29.1369 15.8485 29.1369 15.849 29.1369C14.7069 29.1369 13.7637 28.6793 13.0422 27.7765C13.0341 27.7647 13.0259 27.7543 13.0178 27.7442C12.8242 27.5062 12.6717 27.2181 12.5647 26.8878C12.4727 26.6048 12.1073 26.6048 12.0154 26.8878C11.9085 27.2179 11.7559 27.5052 11.5622 27.7442C11.5539 27.7545 11.5463 27.7649 11.539 27.7765C10.8175 28.6784 9.87305 29.1369 8.73186 29.1369C7.68712 29.1369 6.68746 28.7506 6.03475 28.4286C7.06899 27.7845 7.88034 26.1685 8.33458 25.0805C8.39627 24.8639 8.46593 24.6841 8.54661 24.5307C8.91661 23.8394 9.52966 23.426 10.1861 23.426C10.9897 23.426 11.7078 24.0369 12.0149 24.9832C12.1068 25.2659 12.4722 25.2659 12.5641 24.9832C12.8712 24.0367 13.5897 23.426 14.3929 23.426C15.0502 23.426 15.6625 23.8394 16.0322 24.5307C16.1127 24.681 16.1819 24.8615 16.2624 25.129C16.7032 26.1784 17.5117 27.7858 18.5441 28.4277C17.8949 28.7506 16.8954 29.1369 15.849 29.1369Z" fill="#C96767"/>
    </g>
    <defs>
        <clipPath id="clip0">
            <rect width="23.5271" height="29.893" fill="white" transform="translate(0.527084)"/>
        </clipPath>
    </defs>
</svg>
