<svg width="24" height="30" viewBox="0 0 24 30" fill="none" xmlns="http://www.w3.org/2000/svg">
    <g clip-path="url(#clip0)">
        <path d="M17.2077 0C16.1278 0 15.1394 0.627129 14.4856 1.70337C13.8319 0.627129 12.8436 0 11.7636 0C10.6838 0 9.69545 0.627129 9.04143 1.70337C8.38753 0.627129 7.39916 0 6.31941 0C4.40874 0 2.85431 1.97503 2.85431 4.40254C2.85431 6.70314 4.25018 8.59646 6.0224 8.78795V20.8157C6.0224 21.0243 6.15554 21.1931 6.31941 21.1931H17.2077C17.3713 21.1931 17.5047 21.0243 17.5047 20.8157V8.78725C19.2772 8.59562 20.6728 6.7023 20.6728 4.40184C20.6728 1.97503 19.1183 0 17.2077 0Z" fill="#C96767" />
        <path d="M18.9153 27.9541C17.7229 27.9541 16.6615 25.7306 16.2775 24.8226C16.1968 24.5455 16.1056 24.3111 15.9978 24.1076C15.5174 23.2094 14.7205 22.673 13.8675 22.673C13.0165 22.673 12.2388 23.1997 11.7642 24.0606C11.2898 23.1997 10.5122 22.673 9.66109 22.673C8.80697 22.673 8.01053 23.2093 7.5301 24.109C7.42071 24.3139 7.32989 24.5483 7.26812 24.7753C6.86714 25.7317 5.80507 27.9546 4.6125 27.9546C4.47648 27.9546 4.35848 28.072 4.32511 28.2391C4.29118 28.4071 4.35118 28.5811 4.47074 28.6645C4.54289 28.7137 6.26848 29.8927 8.20721 29.8927C9.5222 29.8927 10.615 29.352 11.4549 28.2848C11.4621 28.2759 11.4679 28.267 11.4741 28.2583C11.5807 28.1227 11.6783 27.9761 11.7644 27.8183C11.851 27.9761 11.9479 28.1227 12.055 28.2576C12.0607 28.267 12.0674 28.2759 12.0743 28.2848C12.9145 29.3521 14.0061 29.8927 15.3222 29.8927C15.3222 29.8927 15.3222 29.8927 15.3227 29.8927C17.2607 29.8927 18.9856 28.7137 19.0587 28.6645C19.1775 28.5816 19.238 28.4056 19.2041 28.2391C19.1693 28.0712 19.0511 27.9541 18.9153 27.9541Z" fill="#C96767" />
    </g>
    <defs>
        <clipPath id="clip0">
            <rect width="23.5271" height="29.893" fill="white" />
        </clipPath>
    </defs>
</svg>
